<?xml version="1.0" encoding="UTF-8" standalone="no"?>
<!DOCTYPE svg PUBLIC "-//W3C//DTD SVG 20010904//EN"
                     "http://www.w3.org/TR/2001/REC-SVG-20010904/DTD/svg10.dtd">
<svg xmlns="http://www.w3.org/2000/svg" width="100%" height="100%" viewBox="0 0 7109 7109">
  <path d="M 321 2895 C 311 3369 473 3713 774 4046 C 1064 4368 1405 4399 1275 4826 C 1145 5253 737 5067 904 5271 C 1071 5476 1238 5420 1442 5290 C 1646 5160 1851 5309 1851 5643 C 1851 5977 1850 6404 1999 6274 C 2148 6144 2018 5253 2445 5216 C 2872 5179 2909 4956 3188 4975 C 3466 4993 3540 5271 3782 4975 C 4023 4677 4079 4436 4376 4120 C 4672 3805 4896 3619 4821 3044 C 4747 2468 4608 2398 4580 2208 C 4538 1934 4781 1771 5307 1854 C 6263 2004 6731 2585 6731 2585 C 6731 2585 6411 1878 4858 1428 C 3677 1087 2503 1133 1535 1540 C 567 1948 330 2451 321 2895 z " style="fill: black"/>
  <path d="M 6469 2641 C 6263 2381 5813 2135 5439 2079 C 5063 2023 4720 2043 4830 2276 C 5024 2690 5100 3195 5036 3490 C 4955 3868 5139 3878 5345 3784 C 5551 3690 6751 2997 6469 2641 z " style="fill: hsl(275, 63%, 66%)"/>
  <path d="M 3800 3007 c 392 -17 390 222 278 389 s -463 167 -556 0 S 3373 3025 3800 3007 z" style="fill: hsl(275, 63%, 66%)"/>
  <path d="M 1776 3415 c -219 -44 -408 464 -204 798 c 204 334 519 742 817 668 c 297 -74 -185 -297 -353 -779 C 1869 3619 1962 3452 1776 3415 z" style="fill: hsl(275, 83%, 23%)"/>
</svg>
  
