<?xml version="1.0" encoding="UTF-8" standalone="no"?>
<!DOCTYPE svg PUBLIC "-//W3C//DTD SVG 20010904//EN"
                     "http://www.w3.org/TR/2001/REC-SVG-20010904/DTD/svg10.dtd">
<svg xmlns="http://www.w3.org/2000/svg" viewBox="0 0 12 12">
  <path d="M0,0h12v12h-12z" fill="#aaaaaa"/>
  <path d="M7,6h3v1h1v3h-1v1h-3v-1h-1v-3h1z" fill="#562200"/>
  <path d="M7,7h3v3h-3z" fill="#ea8930"/>
  <path d="M2,1h3v2h1v1h-1v1h-3v-1h-1v-1h1z" fill="#ff4444"/>
  <path d="M2,5h1v1h-1zM4,5h1v1h-1z" fill="#4a3b2b"/>
  <path d="M7,1h3v2h1v1h-1v2h-1v-2h-1v2h-1v-2h-1v-1h1z" fill="#08bb00"/>
  <path d="M2,6h3v2h1v1h-1v1h1v1h-5v-1h1v-1h-1v-1h1z" fill="#2465ff"/>
  <path d="M2,2h3v1h-3zM8,2h1v1h-1zM3,7h1v1h-1z" fill="#de65e2"/>
</svg>
