<?xml version="1.0" encoding="UTF-8" standalone="no"?>
<!DOCTYPE svg PUBLIC "-//W3C//DTD SVG 20010904//EN"
                     "http://www.w3.org/TR/2001/REC-SVG-20010904/DTD/svg10.dtd">
<svg xmlns="http://www.w3.org/2000/svg" viewBox="0 0 12 12">
  <path d="M0,0h12v12h-12z" fill="#9d9d9d"/>
  <path d="M2,2h3v2h-3z" fill="#a46422"/>
  <path d="M1,6h5v5h-5z" fill="#1b2732"/>
  <path d="M2,4h3v2h-3z" fill="#1d56f7"/>
  <path d="M2,1h3v1h-3zM3,6h3v5h-3v-1h-1v-3h1z" fill="black"/>
  <path d="M3,7h3v3h-3z" fill="#742930"/>
  <path d="M6,3h3v5h3v1h-3v3h-1v-3h-5v-1h5v-4h-2z" fill="#bf2533"/>
  <path d="M1,2h2v2h-2zM4,2h2v2h-2zM7,1h4v4h-1v-1h-1v-1h-1v-1h-1zM6,6h5v5h-5z" fill="#b2ddef"/>
  <path d="M8,6h1v2h2v1h-2v2h-1v-2h-2v-1h2z" fill="#de65e2"/>
  <path d="M2,2h1v1h-2v1h1zM5,2h1v1h-2v1h1z" fill="white"/>
</svg>
