<?xml version="1.0" encoding="UTF-8" standalone="no"?>
<!DOCTYPE svg PUBLIC "-//W3C//DTD SVG 20010904//EN"
                     "http://www.w3.org/TR/2001/REC-SVG-20010904/DTD/svg10.dtd">
<svg xmlns="http://www.w3.org/2000/svg" viewBox="0 0 12 12">
  <path d="M0,0h12v12h-12z" fill="#dddddd"/>
  <path d="M0,0h1v1h5v-1h5v1h1v5h-1v5h1v1h-1v-1h-5v1h-5v-1h-1v-5h1v-5h-1zM6,1v5h5v-5zM1,6v5h5v-5z" fill="#222222"/>
  <path d="M4,9zh1v1h-1zM7,6h3v3h1v1h-2v-3h-2z" fill="#742930"/>
  <path d="M8,3h1v1h-1zM3,7h1v3h-2v-1h1zM8,6h1v1h1v1h-1v1h1v1h-4v-1h2v-1h-2v-1h2z" fill="#bf2533"/>
  <path d="M2,1h3v3h1v1h-5v-1h1z" fill="#f7e16b"/>
  <path d="M1,3h5v1h-1v2h-3v-2h-1z" fill="#1d56f7"/>
  <path d="M2,3h1v2h1v-2h1v1h-3z" fill="white"/>
  <path d="M3,2h1v1h-1z" fill="#a46422"/>
</svg>
