<?xml version="1.0" encoding="UTF-8" standalone="no"?>
<!DOCTYPE svg PUBLIC "-//W3C//DTD SVG 20010904//EN"
                     "http://www.w3.org/TR/2001/REC-SVG-20010904/DTD/svg10.dtd">
<svg xmlns="http://www.w3.org/2000/svg" viewBox="0 0 12 12">
  <path d="M0,0h12v12h-12z" fill="#aaaaaa"/>
  <path d="M1,6h10v5h-10z" fill="#0033cc"/>
  <path d="M3,7h1v1h-1zM4,9h1v1h-1z" fill="#1d56f7"/>
  <path d="M7,7h3v3h-3z" fill="black"/>
  <path d="M8,8h1v1h-1z" fill="#f7e16b"/>
  <path d="M3,2h1v1h2v1h-1v2h-1v-1h-1v1h-1v-2h-1v-1h2z" fill="#46881a"/>
  <path d="M3,3h1v1h1v1h-3v-1h1M7,2h3v1h1v2h-1v1h-1v-1h-1v1h-1v-1h-1v-2h1z" fill="#ab7843"/>
  <path d="M2,1h3v2h-1v-1h-1v1h-1zM7,3h1v2h1v-2h1v1h-3z" fill="#4a3b2b"/>
</svg>
